<?xml version="1.0" encoding="UTF-8"?>
<svg width="1200" height="800" viewBox="0 0 1200 800" fill="none" xmlns="http://www.w3.org/2000/svg">
    <!-- 스타일 정의 -->
    <defs>
        <!-- 아이콘 심볼 정의 -->
        <symbol id="home" viewBox="0 0 24 24">
            <path d="M3 12L5 10M5 10L12 3L19 10M5 10V20C5 20.5523 5.44772 21 6 21H9M19 10L21 12M19 10V20C19 20.5523 18.5523 21 18 21H15M9 21C9.55228 21 10 20.5523 10 20V16C10 15.4477 10.4477 15 11 15H13C13.5523 15 14 15.4477 14 16V20C14 20.5523 14.4477 21 15 21M9 21H15" 
                  stroke="currentColor" 
                  stroke-width="2" 
                  stroke-linecap="round" 
                  stroke-linejoin="round"/>
        </symbol>

        <symbol id="add" viewBox="0 0 24 24">
            <path d="M12 6V12M12 12V18M12 12H18M12 12H6" 
                  stroke="currentColor" 
                  stroke-width="2" 
                  stroke-linecap="round" 
                  stroke-linejoin="round"/>
        </symbol>

        <symbol id="settings" viewBox="0 0 24 24">
            <path d="M12 15C13.6569 15 15 13.6569 15 12C15 10.3431 13.6569 9 12 9C10.3431 9 9 10.3431 9 12C9 13.6569 10.3431 15 12 15Z" 
                  stroke="currentColor" 
                  stroke-width="2" 
                  stroke-linecap="round" 
                  stroke-linejoin="round"/>
            <path d="M19.4 15C19.1277 15.8031 19.2583 16.6846 19.7601 17.3841C20.2619 18.0836 21.0809 18.4979 21.9 18.5H22C22.5304 18.5 23.0391 18.7107 23.4142 19.0858C23.7893 19.4609 24 19.9696 24 20.5V21.5C24 22.0304 23.7893 22.5391 23.4142 22.9142C23.0391 23.2893 22.5304 23.5 22 23.5H21.9C21.0809 23.5021 20.2619 23.9164 19.7601 24.6159C19.2583 25.3154 19.1277 26.1969 19.4 27L19.5 27.3C19.703 27.7233 19.7382 28.2079 19.5993 28.6557C19.4604 29.1035 19.1563 29.4851 18.75 29.725L17.85 30.275C17.4436 30.5149 16.9591 30.6002 16.4879 30.5185C16.0167 30.4368 15.5898 30.1932 15.28 29.83L15.1 29.625C14.5031 28.9013 13.6107 28.4994 12.6792 28.5175C11.7477 28.5357 10.8709 28.9721 10.3 29.72L10.12 29.93C9.81016 30.2932 9.38327 30.5368 8.91209 30.6185C8.44091 30.7002 7.95638 30.6149 7.55 30.375L6.65 29.825C6.24368 29.5851 5.93962 29.2035 5.80071 28.7557C5.6618 28.3079 5.69697 27.8233 5.9 27.4L6 27.1C6.27232 26.2969 6.14174 25.4154 5.63993 24.7159C5.13812 24.0164 4.31913 23.6021 3.5 23.6H3C2.46957 23.6 1.96086 23.3893 1.58579 23.0142C1.21071 22.6391 1 22.1304 1 21.6V20.6C1 20.0696 1.21071 19.5609 1.58579 19.1858C1.96086 18.8107 2.46957 18.6 3 18.6H3.1C3.91913 18.5979 4.73812 18.1836 5.23993 17.4841C5.74174 16.7846 5.87232 15.9031 5.6 15.1L5.5 14.8C5.29697 14.3767 5.2618 13.8921 5.40071 13.4443C5.53962 12.9965 5.84368 12.6149 6.25 12.375L7.15 11.825C7.55638 11.5851 8.04091 11.4998 8.51209 11.5815C8.98327 11.6632 9.41016 11.9068 9.72 12.27L9.9 12.475C10.4969 13.1987 11.3893 13.6006 12.3208 13.5825C13.2523 13.5643 14.1291 13.1279 14.7 12.38L14.88 12.17C15.1898 11.8068 15.6167 11.5632 16.0879 11.4815C16.5591 11.3998 17.0436 11.4851 17.45 11.725L18.35 12.275C18.7563 12.5149 19.0604 12.8965 19.1993 13.3443C19.3382 13.7921 19.303 14.2767 19.1 14.7L19 15C18.7277 15.8031 18.8583 16.6846 19.3601 17.3841C19.8619 18.0836 20.6809 18.4979 21.5 18.5" 
                  stroke="currentColor" 
                  stroke-width="2" 
                  stroke-linecap="round" 
                  stroke-linejoin="round"/>
        </symbol>

        <symbol id="camera" viewBox="0 0 24 24">
            <path d="M23 19C23 19.5304 22.7893 20.0391 22.4142 20.4142C22.0391 20.7893 21.5304 21 21 21H3C2.46957 21 1.96086 20.7893 1.58579 20.4142C1.21071 20.0391 1 19.5304 1 19V8C1 7.46957 1.21071 6.96086 1.58579 6.58579C1.96086 6.21071 2.46957 6 3 6H7L9 3H15L17 6H21C21.5304 6 22.0391 6.21071 22.4142 6.58579C22.7893 6.96086 23 7.46957 23 8V19Z" 
                  stroke="currentColor" 
                  stroke-width="2" 
                  stroke-linecap="round" 
                  stroke-linejoin="round"/>
            <path d="M12 17C14.2091 17 16 15.2091 16 13C16 10.7909 14.2091 9 12 9C9.79086 9 8 10.7909 8 13C8 15.2091 9.79086 17 12 17Z" 
                  stroke="currentColor" 
                  stroke-width="2" 
                  stroke-linecap="round" 
                  stroke-linejoin="round"/>
        </symbol>

        <!-- 그라데이션 정의 -->
        <linearGradient id="headerGradient" x1="0%" y1="0%" x2="100%" y2="0%">
            <stop offset="0%" style="stop-color:#7F7FD5"/>
            <stop offset="50%" style="stop-color:#86A8E7"/>
            <stop offset="100%" style="stop-color:#91EAE4"/>
        </linearGradient>

        <!-- 그림자 필터 -->
        <filter id="dropShadow">
            <feGaussianBlur in="SourceAlpha" stdDeviation="2"/>
            <feOffset dx="0" dy="2"/>
            <feComponentTransfer>
                <feFuncA type="linear" slope="0.2"/>
            </feComponentTransfer>
            <feMerge>
                <feMergeNode/>
                <feMergeNode in="SourceGraphic"/>
            </feMerge>
        </filter>

        <!-- 알림 아이콘 추가 -->
        <symbol id="bell" viewBox="0 0 24 24">
            <path d="M18 8C18 6.4087 17.3679 4.88258 16.2426 3.75736C15.1174 2.63214 13.5913 2 12 2C10.4087 2 8.88258 2.63214 7.75736 3.75736C6.63214 4.88258 6 6.4087 6 8C6 15 3 17 3 17H21C21 17 18 15 18 8Z" 
                  stroke="currentColor" 
                  stroke-width="2" 
                  stroke-linecap="round" 
                  stroke-linejoin="round"/>
            <path d="M13.73 21C13.5542 21.3031 13.3019 21.5547 12.9982 21.7295C12.6946 21.9044 12.3504 21.9965 12 21.9965C11.6496 21.9965 11.3054 21.9044 11.0018 21.7295C10.6982 21.5547 10.4458 21.3031 10.27 21" 
                  stroke="currentColor" 
                  stroke-width="2" 
                  stroke-linecap="round" 
                  stroke-linejoin="round"/>
        </symbol>

        <!-- 스크롤바 스타일 추가 -->
        <linearGradient id="scrollbarGradient" x1="0%" y1="0%" x2="0%" y2="100%">
            <stop offset="0%" style="stop-color:#7F7FD5;opacity:0.3"/>
            <stop offset="100%" style="stop-color:#91EAE4;opacity:0.3"/>
        </linearGradient>

        <!-- 모달 배경을 위한 필터 추가 -->
        <filter id="modalBlur">
            <feGaussianBlur stdDeviation="4"/>
        </filter>
    </defs>

    <!-- 배경 -->
    <rect width="1200" height="800" fill="#F8F9FA"/>

    <!-- 3개의 화면 컨테이너로 변경 -->
    <g transform="translate(30, 50)">
        <!-- 식재료 목록 화면 -->
        <g>
            <!-- 배경 -->
            <rect width="280" height="700" rx="20" fill="white" filter="url(#dropShadow)"/>
            
            <!-- 헤더 -->
            <rect width="280" height="60" rx="20" fill="url(#headerGradient)"/>
            <text x="20" y="38" font-family="Arial" font-size="20" fill="white" font-weight="bold">나의 식재료</text>

            <!-- 검색바 -->
            <rect x="20" y="80" width="240" height="44" rx="22" fill="white" stroke="#E9ECEF"/>
            <text x="40" y="107" font-family="Arial" font-size="14" fill="#6C757D">재료 검색...</text>

            <!-- 필터 버튼 -->
            <g transform="translate(20, 140)">
                <rect width="70" height="32" rx="16" fill="url(#headerGradient)" filter="url(#dropShadow)"/>
                <text x="20" y="21" font-family="Arial" font-size="12" fill="white">전체</text>
                
                <rect x="80" width="70" height="32" rx="16" fill="white" stroke="#E9ECEF"/>
                <text x="95" y="21" font-family="Arial" font-size="12" fill="#6C757D">냉장</text>
                
                <rect x="160" width="70" height="32" rx="16" fill="white" stroke="#E9ECEF"/>
                <text x="175" y="21" font-family="Arial" font-size="12" fill="#6C757D">냉동</text>
            </g>

            <!-- 스크롤 가능한 식재료 목록 영역 -->
            <g transform="translate(20, 190)">
                <!-- 스크롤바 -->
                <rect x="235" y="0" width="4" height="450" rx="2" fill="#E9ECEF"/>
                <rect x="235" y="0" width="4" height="100" rx="2" fill="url(#scrollbarGradient)"/>

                <!-- 식재료 카드들 -->
                <g>
                    <!-- 카드 1 -->
                    <rect width="230" height="80" rx="10" fill="white" stroke="#E9ECEF" filter="url(#dropShadow)"/>
                    <text x="20" y="35" font-family="Arial" font-size="16" fill="#343A40">당근</text>
                    <text x="20" y="60" font-family="Arial" font-size="14" fill="#6C757D">500g / 냉장</text>
                    <text x="140" y="35" font-family="Arial" font-size="12" fill="#FF6B6B">D-3</text>
                    <g transform="translate(190, 28)">
                        <use href="#bell" width="24" height="24" stroke="url(#headerGradient)"/>
                    </g>

                    <!-- 추가 카드들 -->
                    <g transform="translate(0, 90)">
                        <rect width="230" height="80" rx="10" fill="white" stroke="#E9ECEF" filter="url(#dropShadow)"/>
                        <!-- 카드 내용 -->
                    </g>
                </g>
            </g>

            <!-- 홈 화면 탭바 -->
            <g transform="translate(0, 650)">
                <rect width="280" height="50" rx="25" fill="white" filter="url(#dropShadow)"/>
                <g transform="translate(40, 13)">
                    <use href="#home" width="24" height="24" stroke="url(#headerGradient)"/>
                    <text x="-10" y="40" font-family="Arial" font-size="12" fill="#7F7FD5">홈</text>
                </g>
                <g transform="translate(130, 13)">
                    <use href="#add" width="24" height="24" stroke="#6C757D"/>
                    <text x="-10" y="40" font-family="Arial" font-size="12" fill="#6C757D">추가</text>
                </g>
                <g transform="translate(220, 13)">
                    <use href="#settings" width="24" height="24" stroke="#6C757D"/>
                    <text x="-10" y="40" font-family="Arial" font-size="12" fill="#6C757D">설정</text>
                </g>
            </g>
        </g>

        <!-- 통합된 재료 추가 화면 -->
        <g transform="translate(300, 0)">
            <!-- 배경 -->
            <rect width="280" height="700" rx="20" fill="white" filter="url(#dropShadow)"/>
            
            <!-- 헤더 -->
            <rect width="280" height="60" rx="20" fill="url(#headerGradient)"/>
            <text x="20" y="38" font-family="Arial" font-size="20" fill="white" font-weight="bold">재료 추가</text>

            <!-- 모드 전환 세그먼트 컨트롤 -->
            <g transform="translate(20, 80)">
                <rect width="240" height="44" rx="22" fill="#F8F9FA"/>
                <rect width="120" height="44" rx="22" fill="url(#headerGradient)"/>
                <text x="40" y="27" font-family="Arial" font-size="14" fill="white">단일 추가</text>
                <text x="160" y="27" font-family="Arial" font-size="14" fill="#6C757D">다중 추가</text>
            </g>

            <!-- 스크롤 가능한 콘텐츠 영역 -->
            <g transform="translate(20, 140)">
                <!-- 스크롤바 -->
                <rect x="235" y="0" width="4" height="500" rx="2" fill="#E9ECEF"/>
                <rect x="235" y="0" width="4" height="150" rx="2" fill="url(#scrollbarGradient)"/>

                <!-- 이미지 인식 결과 영역 (자동 입력된 경우) -->
                <g>
                    <rect width="230" height="80" rx="10" fill="#F8F9FA" stroke="#E9ECEF"/>
                    <text x="20" y="30" font-family="Arial" font-size="14" fill="#343A40">인식 결과</text>
                    <text x="20" y="55" font-family="Arial" font-size="12" fill="#6C757D">당근 (신뢰도: 95%)</text>
                    <rect x="160" y="20" width="50" height="24" rx="12" fill="url(#headerGradient)"/>
                    <text x="170" y="35" font-family="Arial" font-size="12" fill="white">확인</text>
                </g>

                <!-- 이미지 입력 영역 -->
                <g transform="translate(0, 100)">
                    <!-- 재료 촬영 -->
                    <rect width="230" height="120" rx="10" fill="white" stroke="#E9ECEF" stroke-dasharray="4"/>
                    <g transform="translate(103, 30)">
                        <use href="#camera" width="24" height="24" stroke="#6C757D"/>
                    </g>
                    <text x="77" y="80" font-family="Arial" font-size="12" fill="#6C757D">재료 촬영</text>
                    <text x="45" y="100" font-family="Arial" font-size="10" fill="#6C757D">(단일 모드에서는 하나의 재료만 인식)</text>

                    <!-- 영수증 모드 전환 알림 -->
                    <g transform="translate(0, 130)">
                        <rect width="230" height="80" rx="8" fill="#F8F9FA"/>
                        <text x="20" y="25" font-family="Arial" font-size="12" fill="#6C757D">영수증 촬영은 다중 모드에서만</text>
                        <text x="20" y="45" font-family="Arial" font-size="12" fill="#6C757D">사용할 수 있습니다.</text>
                        <text x="20" y="65" font-family="Arial" font-size="12" fill="#6C757D">여러 재료를 한 번에 추가하시겠습니까?</text>
                        <rect x="160" y="15" width="60" height="30" rx="15" fill="url(#headerGradient)"/>
                        <text x="170" y="34" font-family="Arial" font-size="12" fill="white">전환</text>
                    </g>
                </g>

                <!-- 입력 폼 -->
                <g transform="translate(0, 330)">
                    <!-- 기존 입력 필드들 -->
                    <text x="0" y="20" font-family="Arial" font-size="14" fill="#343A40">재료명</text>
                    <rect x="0" y="30" width="230" height="44" rx="8" fill="white" stroke="#E9ECEF"/>

                    <text x="0" y="100" font-family="Arial" font-size="14" fill="#343A40">수량</text>
                    <rect x="0" y="110" width="230" height="44" rx="8" fill="white" stroke="#E9ECEF"/>

                    <!-- 보관방법 -->
                    <text x="0" y="180" font-family="Arial" font-size="14" fill="#343A40">보관방법</text>
                    <g transform="translate(0, 190)">
                        <rect width="72" height="44" rx="8" fill="white" stroke="#E9ECEF"/>
                        <text x="20" y="27" font-family="Arial" font-size="14" fill="#6C757D">실온</text>
                        
                        <rect x="79" width="72" height="44" rx="8" fill="url(#headerGradient)"/>
                        <text x="94" y="27" font-family="Arial" font-size="14" fill="white">냉장</text>
                        
                        <rect x="158" width="72" height="44" rx="8" fill="white" stroke="#E9ECEF"/>
                        <text x="173" y="27" font-family="Arial" font-size="14" fill="#6C757D">냉동</text>
                    </g>

                    <!-- 유통기한 -->
                    <text x="0" y="260" font-family="Arial" font-size="14" fill="#343A40">유통기한</text>
                    <rect x="0" y="270" width="230" height="44" rx="8" fill="white" stroke="#E9ECEF"/>

                    <!-- 알림 설정 -->
                    <text x="0" y="340" font-family="Arial" font-size="14" fill="#343A40">알림 설정</text>
                    <rect x="0" y="350" width="230" height="44" rx="8" fill="white" stroke="#E9ECEF"/>
                    <text x="20" y="377" font-family="Arial" font-size="14" fill="#6C757D">유통기한 알림 받기</text>
                    <g transform="translate(190, 358)">
                        <use href="#bell" width="24" height="24" stroke="url(#headerGradient)"/>
                    </g>
                </g>
            </g>

            <!-- 모드 전환 확인 모달 -->
            <g transform="translate(0, 0)">
                <rect width="280" height="700" fill="black" fill-opacity="0.5" filter="url(#modalBlur)"/>
                <g transform="translate(20, 250)">
                    <rect width="240" height="240" rx="12" fill="white" filter="url(#dropShadow)"/>
                    <text x="30" y="40" font-family="Arial" font-size="16" font-weight="bold" fill="#343A40">다중 모드로 전환</text>
                    <text x="30" y="70" font-family="Arial" font-size="14" fill="#6C757D">여러 재료가 인식되었습니다:</text>
                    
                    <!-- 인식된 재료 목록 -->
                    <g transform="translate(30, 90)">
                        <text x="0" y="20" font-family="Arial" font-size="14" fill="#343A40">• 당근 (95%)</text>
                        <text x="0" y="40" font-family="Arial" font-size="14" fill="#343A40">• 양파 (92%)</text>
                        <text x="0" y="60" font-family="Arial" font-size="14" fill="#343A40">• 감자 (88%)</text>
                    </g>
                    
                    <text x="30" y="170" font-family="Arial" font-size="14" fill="#6C757D">다중 모드로 전환하여</text>
                    <text x="30" y="190" font-family="Arial" font-size="14" fill="#6C757D">모든 재료를 추가하시겠습니까?</text>
                    
                    <!-- 버튼 그룹 -->
                    <g transform="translate(20, 180)">
                        <rect width="95" height="40" rx="8" fill="white" stroke="#E9ECEF"/>
                        <text x="35" y="25" font-family="Arial" font-size="14" fill="#6C757D">취소</text>
                        
                        <rect x="105" width="95" height="40" rx="8" fill="url(#headerGradient)"/>
                        <text x="130" y="25" font-family="Arial" font-size="14" fill="white">전환</text>
                    </g>
                </g>
            </g>

            <!-- 플로팅 저장 버튼 -->
            <g transform="translate(20, 620)">
                <rect width="240" height="44" rx="8" fill="url(#headerGradient)" filter="url(#dropShadow)"/>
                <text x="105" y="27" font-family="Arial" font-size="16" fill="white" font-weight="bold">저장</text>
            </g>

            <!-- 모달 표시 시 비활성화된 탭바 -->
            <g transform="translate(0, 650)">
                <rect width="280" height="50" rx="25" fill="white" filter="url(#dropShadow)" opacity="0.5"/>
                <g transform="translate(40, 13)" opacity="0.5">
                    <use href="#home" width="24" height="24" stroke="#6C757D"/>
                    <text x="-10" y="40" font-family="Arial" font-size="12" fill="#6C757D">홈</text>
                </g>
                <g transform="translate(130, 13)" opacity="0.5">
                    <use href="#add" width="24" height="24" stroke="url(#headerGradient)"/>
                    <text x="-10" y="40" font-family="Arial" font-size="12" fill="#7F7FD5">추가</text>
                </g>
                <g transform="translate(220, 13)" opacity="0.5">
                    <use href="#settings" width="24" height="24" stroke="#6C757D"/>
                    <text x="-10" y="40" font-family="Arial" font-size="12" fill="#6C757D">설정</text>
                </g>
                <!-- 비활성화 상태 표시 -->
                <rect width="280" height="50" rx="25" fill="black" fill-opacity="0.1"/>
            </g>
        </g>

        <!-- 설정 화면 -->
        <g transform="translate(600, 0)">
            <!-- 배경 -->
            <rect width="280" height="700" rx="20" fill="white" filter="url(#dropShadow)"/>
            
            <!-- 헤더 -->
            <rect width="280" height="60" rx="20" fill="url(#headerGradient)"/>
            <text x="20" y="38" font-family="Arial" font-size="20" fill="white" font-weight="bold">설정</text>

            <!-- 스크롤 가능한 설정 항목들 -->
            <g transform="translate(20, 80)">
                <!-- 스크롤바 -->
                <rect x="235" y="0" width="4" height="560" rx="2" fill="#E9ECEF"/>
                <rect x="235" y="0" width="4" height="200" rx="2" fill="url(#scrollbarGradient)"/>

                <!-- 설정 항목들 -->
                <g>
                    <!-- 전역 알림 설정 -->
                    <rect width="230" height="60" rx="8" fill="white" stroke="#E9ECEF"/>
                    <text x="20" y="35" font-family="Arial" font-size="16" fill="#343A40">전역 알림 설정</text>
                    <g transform="translate(190, 18)">
                        <use href="#bell" width="24" height="24" stroke="url(#headerGradient)"/>
                    </g>

                    <!-- 알림 시간 설정 -->
                    <g transform="translate(0, 80)">
                        <rect width="230" height="60" rx="8" fill="white" stroke="#E9ECEF"/>
                        <text x="20" y="35" font-family="Arial" font-size="16" fill="#343A40">알림 시간</text>
                        <text x="170" y="35" font-family="Arial" font-size="14" fill="#6C757D">09:00</text>
                    </g>

                    <!-- 알림 요일 설정 -->
                    <g transform="translate(0, 160)">
                        <rect width="230" height="120" rx="8" fill="white" stroke="#E9ECEF"/>
                        <text x="20" y="35" font-family="Arial" font-size="16" fill="#343A40">알림 요일</text>
                        <!-- 요일 선택 버튼 -->
                        <g transform="translate(20, 50)">
                            <rect width="25" height="25" rx="12.5" fill="url(#headerGradient)"/>
                            <text x="8" y="17" font-family="Arial" font-size="12" fill="white">월</text>
                            
                            <rect x="30" width="25" height="25" rx="12.5" fill="url(#headerGradient)"/>
                            <text x="38" y="17" font-family="Arial" font-size="12" fill="white">화</text>
                            
                            <rect x="60" width="25" height="25" rx="12.5" fill="url(#headerGradient)"/>
                            <text x="68" y="17" font-family="Arial" font-size="12" fill="white">수</text>
                            
                            <rect x="90" width="25" height="25" rx="12.5" fill="url(#headerGradient)"/>
                            <text x="98" y="17" font-family="Arial" font-size="12" fill="white">목</text>
                            
                            <rect x="120" width="25" height="25" rx="12.5" fill="url(#headerGradient)"/>
                            <text x="128" y="17" font-family="Arial" font-size="12" fill="white">금</text>
                            
                            <rect x="150" width="25" height="25" rx="12.5" fill="white" stroke="#E9ECEF"/>
                            <text x="158" y="17" font-family="Arial" font-size="12" fill="#6C757D">토</text>
                            
                            <rect x="180" width="25" height="25" rx="12.5" fill="white" stroke="#E9ECEF"/>
                            <text x="188" y="17" font-family="Arial" font-size="12" fill="#6C757D">일</text>
                        </g>
                    </g>
                </g>
            </g>

            <!-- 설정 화면 탭바 -->
            <g transform="translate(0, 650)">
                <rect width="280" height="50" rx="25" fill="white" filter="url(#dropShadow)"/>
                <g transform="translate(40, 13)">
                    <use href="#home" width="24" height="24" stroke="#6C757D"/>
                    <text x="-10" y="40" font-family="Arial" font-size="12" fill="#6C757D">홈</text>
                </g>
                <g transform="translate(130, 13)">
                    <use href="#add" width="24" height="24" stroke="#6C757D"/>
                    <text x="-10" y="40" font-family="Arial" font-size="12" fill="#6C757D">추가</text>
                </g>
                <g transform="translate(220, 13)">
                    <use href="#settings" width="24" height="24" stroke="url(#headerGradient)"/>
                    <text x="-10" y="40" font-family="Arial" font-size="12" fill="#7F7FD5">설정</text>
                </g>
            </g>
        </g>
    </g>
</svg> 