<?xml version="1.0" encoding="UTF-8"?>
<svg width="360" height="640" version="1.1" xmlns="http://www.w3.org/2000/svg">
  <!-- 상단 바 -->
  <rect x="0" y="0" width="360" height="56" fill="#f9f9f9" stroke="#666"/>
  <text x="16" y="35" font-family="Arial" font-size="18" fill="#000">설정</text>
  <text x="320" y="35" font-family="Arial" font-size="24">←</text>
  
  <!-- 알림 설정 섹션 -->
  <rect x="0" y="56" width="360" height="200" fill="#fff" stroke="#666"/>
  <text x="16" y="88" font-family="Arial" font-size="16" fill="#000">알림 설정</text>
  
  <!-- 푸시 알림 토글 -->
  <rect x="16" y="104" width="328" height="48" fill="#f5f5f5" stroke="#666" rx="8"/>
  <text x="24" y="134" font-family="Arial" font-size="14" fill="#666">푸시 알림</text>
  <rect x="250" y="112" width="80" height="32" fill="#4CAF50" stroke="#45a049" rx="16"/>
  <circle cx="314" cy="128" r="14" fill="#fff"/>
  
  <!-- 알림 시점 설정 -->
  <text x="16" y="184" font-family="Arial" font-size="14" fill="#666">알림 시점 설정</text>
  <rect x="16" y="200" width="328" height="40" fill="#f5f5f5" stroke="#666" rx="4"/>
  <text x="24" y="224" font-family="Arial" font-size="14" fill="#666">✓ 1일 전</text>
  
  <rect x="16" y="248" width="328" height="40" fill="#f5f5f5" stroke="#666" rx="4"/>
  <text x="24" y="272" font-family="Arial" font-size="14" fill="#666">✓ 3일 전</text>
  
  <rect x="16" y="296" width="328" height="40" fill="#f5f5f5" stroke="#666" rx="4"/>
  <text x="24" y="320" font-family="Arial" font-size="14" fill="#666">✓ 7일 전</text>
  
  <!-- 앱 정보 섹션 -->
  <rect x="0" y="356" width="360" height="120" fill="#fff" stroke="#666"/>
  <text x="16" y="388" font-family="Arial" font-size="16" fill="#000">앱 정보</text>
  <text x="16" y="420" font-family="Arial" font-size="14" fill="#666">버전: 1.0.0</text>
  <text x="16" y="452" font-family="Arial" font-size="14" fill="#666">개발자 정보</text>
</svg> 